<?xml version="1.0" encoding="UTF-8" standalone="no"?>
<!-- Created with Inkscape (http://www.inkscape.org/) -->

<svg
   version="1.1"
   id="svg1"
   width="635"
   height="635"
   viewBox="0 0 635 635"
   sodipodi:docname="egrader_logo_v2.svg"
   inkscape:version="1.3.1 (9b9bdc1480, 2023-11-25, custom)"
   xmlns:inkscape="http://www.inkscape.org/namespaces/inkscape"
   xmlns:sodipodi="http://sodipodi.sourceforge.net/DTD/sodipodi-0.dtd"
   xmlns="http://www.w3.org/2000/svg"
   xmlns:svg="http://www.w3.org/2000/svg">
  <defs
     id="defs1" />
  <sodipodi:namedview
     id="namedview1"
     pagecolor="#ffffff"
     bordercolor="#666666"
     borderopacity="1.0"
     inkscape:showpageshadow="2"
     inkscape:pageopacity="0.0"
     inkscape:pagecheckerboard="0"
     inkscape:deskcolor="#d1d1d1"
     inkscape:zoom="1.1543307"
     inkscape:cx="317.5"
     inkscape:cy="317.5"
     inkscape:window-width="1864"
     inkscape:window-height="1003"
     inkscape:window-x="2296"
     inkscape:window-y="360"
     inkscape:window-maximized="1"
     inkscape:current-layer="g1" />
  <g
     inkscape:groupmode="layer"
     inkscape:label="Image"
     id="g1">
    <path
       style="fill:#0a1924;stroke:none"
       d="M 124,0.42437744 C 107.77834,2.5543213 93.162315,5.1582031 78,11.861877 66.504929,16.944153 55.622353,23.16272 46,31.296326 -7.230278,76.290771 0,146.37805 0,209 v 198 75 c 0,32.95905 0.85060883,66.77887 20.570215,95 23.324358,33.38 58.531668,54.10718 99.429785,56.91052 79.88606,5.47571 161.10913,0.21277 241,0.0895 39.94092,-0.0616 79.99539,1.38385 120,0.45526 13.20963,-0.30664 26.87177,0.45233 40,-1.74078 C 570.17523,624.49963 607.81024,594.25342 626.54706,548 634.35919,528.71515 634,508.38928 634,488 v -67 c 0,-82.4635 3.56775,-165.70447 0.59418,-248 C 632.97131,128.08563 634.25342,88.865479 605.34564,51 584.68469,23.936768 551.81781,5.4395142 518,1.2862549 500.60452,-0.85015869 483.40701,1 466,1 382.71088,1 298.9751,-1.0471802 216,0.98535156 193.69603,1.5316772 171.31137,1.0014648 149,1 140.62396,0.99945068 132.36716,-0.67425537 124,0.42437744 M 140,53.285522 c 43.62251,-5.147094 90.18048,0.535462 134,0.535462 C 330.57837,53.820984 387.34744,53 444,53 487.82343,53 532.19501,50.21167 561.07947,90 584.1546,121.78601 577,168.94098 577,206 v 203 63 c 0,12.5304 1.15814,25.67584 -1.5108,38 -7.44019,34.35577 -34.81391,59.59076 -69.4892,64.57178 -34.72119,4.98761 -72.03915,0.59759 -107,0.42901 C 329.4675,574.66547 259.63599,575 190,575 150.33109,575 101.87301,582.67017 74.760033,546 50.409916,513.06659 57,468.50629 57,430 57,358.26465 56.233524,286.50671 57.98534,215 58.846504,179.84842 52.364449,140.84979 63.519287,107 74.623558,73.30365 107.06439,57.171631 140,53.285522 m 61,50.138858 C 181.84131,105.93994 161.32358,104 142,104 c -11.18611,0 -21.81927,-0.64404 -29.60957,9.01544 C 104.25466,123.1033 106,136.93915 106,149 c 0,23.841 -7.470749,68.54211 30,63.81482 22.68771,-2.86227 18.40448,-26.90332 18.01466,-42.81482 -0.10447,-4.26434 -1.79678,-14.2363 2.30324,-16.97223 C 161.93451,149.27982 176.37141,152 183,152 h 50 c 8.75806,0 18.77444,1.28531 27,-2.36343 20.21103,-8.96534 13.34341,-33.85917 -2,-43.66666 C 252.19713,102.26074 245.58147,103 239,103 c -12.46461,0 -25.63551,-1.1991 -38,0.42438 M 300,283 h -3 C 293.17688,274.42307 284.69031,269.14264 278,262.91049 265.14203,250.93307 252.09454,238.26587 240.57562,225 234.92795,218.49579 227.29343,207.09616 218,206.10956 c -11.89954,-1.26325 -21.79539,11.69549 -30,18.76004 -6.16545,5.30871 -18.08159,12.52399 -19.5625,21.1304 -1.42075,8.25684 8.43657,16.8678 13.5625,22 17.08568,17.10663 37.28087,32.23157 56,47.57562 14.23387,11.66751 27.1424,24.25882 39.98535,37.42438 5.72302,5.86676 11.00119,14.09427 20.01465,14.77469 6.91403,0.52194 12.44901,-5.37134 17,-9.78858 C 325.25732,348.03021 334.05914,337.20959 344.01465,327 379.2261,290.88986 416.6218,256.87643 452.71371,221.57175 459.15973,215.26633 463.6062,207.4122 470,201 c 0.90518,11.46906 -2.18741,28.44525 2.22839,39 6.4231,15.35266 31.32755,24.80832 43.39197,10.90665 C 526.80261,238.02151 521,208.12433 521,192 v -47 c 0,-10.30527 0.53772,-20.20425 -5.78857,-28.99921 C 506.98013,104.55743 494.86035,104 482,104 c -22.63608,0 -45.30127,1 -68,1 -9.60526,0 -24.60062,-2.84192 -32.96063,2.56329 -11.90109,7.69471 -17.74115,28.31665 -5.02393,38.00693 7.97125,6.07395 24.3783,4.42917 33.98456,4.42978 4.49353,2.7e-4 12.28806,-0.9137 15.28781,3.41898 2.44751,3.53506 -2.45294,8.13372 -4.57718,10.58102 -6.92175,7.97443 -14.7886,15.16232 -21.8804,23 C 379.72519,208.11438 356.36496,228.87036 335,247.71451 323.85849,257.54147 306.34946,269.38422 300,283 M 155,463 c 0,-27.65411 -1,-55.29156 -1,-83 0,-11.37936 2.24088,-24.49557 -8.09335,-32.35107 C 131.80177,336.92722 110.46404,344.94992 106.52932,362 104.45454,370.99051 106,381.79834 106,391 v 59 c 0,13.82013 -2.99684,31.68079 0.78858,45 2.61209,9.19077 11.50519,18.37524 21.21142,19.7901 7.6445,1.11432 15.32736,-1.08624 23,-0.75073 28.50967,1.24652 57.46875,1.96063 86,1.96063 12.91501,0 26.05396,-2.50488 32.67285,-15 C 277.62787,485.9826 265.31369,469.8262 251,464.21375 242.68509,460.95343 230.82378,463 222,463 c -20.55212,0 -47.2258,-5.84491 -67,0 m 319,0 c -7.43457,-2.19754 -16.27756,-1 -24,-1 h -44 c -9.94385,0 -21.48688,-1.62054 -31,1.76465 -13.70938,4.87848 -20.71997,23.42969 -14.16437,36.23535 4.06168,7.93405 13.06623,14.81866 22.16437,14.98071 24.15656,0.4303 48.73743,-0.98071 73,-0.98071 14.39911,0 30.84317,2.20319 45,-0.46759 C 510.91425,511.66202 519.13348,503.43967 522.39044,494 526.55865,481.91931 523,467.47864 523,455 v -62 c 0,-9.73264 2.13837,-19.38507 -0.23999,-29 -4.02319,-16.26456 -24.71896,-28.13065 -39.74536,-17.35107 C 471.98611,354.56052 474,368.14343 474,380 Z"
       id="path1" />
  </g>
</svg>
